<svg xmlns="http://www.w3.org/2000/svg" viewBox="0 0 88.54 21.27"><defs><style>.cls-1{fill:#009bd7;}</style></defs><title>Asset 40</title><g id="Layer_2" data-name="Layer 2"><g id="Layer_1-2" data-name="Layer 1"><path class="cls-1" d="M0,7.66V4.59H2.3V0H6.56V4.59H9.23V7.66H6.56v8.7a2,2,0,0,0,.25,1.27,3,3,0,0,0,1.58.24H8.8l.43,0v3.22l-2,.08c-2,.07-3.42-.28-4.17-1.06A3.15,3.15,0,0,1,2.3,17.8V7.66Z"/><path class="cls-1" d="M24.24,4.06l.37,0V8.49l-.73-.06h-.51c-1.73,0-2.89.56-3.49,1.69a6.59,6.59,0,0,0-.5,2.93v7.87H15.05V4.44h4.11V7.31a9.17,9.17,0,0,1,1.73-2.25,4.78,4.78,0,0,1,3.15-1Z"/><path class="cls-1" d="M34.52,4.44v9.93a5.18,5.18,0,0,0,.33,2.11,2.29,2.29,0,0,0,2.3,1.26,3,3,0,0,0,3-1.78,6.54,6.54,0,0,0,.42-2.56v-9h4.36V20.91H40.76V18.58l-.3.46a3,3,0,0,1-.57.66,5.94,5.94,0,0,1-2,1.24,6.61,6.61,0,0,1-2.2.33c-2.43,0-4.07-.87-4.92-2.63a10.09,10.09,0,0,1-.7-4.27V4.44Z"/><path class="cls-1" d="M50.53,7.66V4.59h2.3V0h4.26V4.59h2.67V7.66H57.09v8.7c0,.68.08,1.1.26,1.27a2.9,2.9,0,0,0,1.57.24h.41l.43,0v3.22l-2,.08c-2,.07-3.42-.28-4.17-1.06a3.15,3.15,0,0,1-.72-2.28V7.66Z"/><path class="cls-1" d="M63.93,7.66V4.59h2.3V0h4.26V4.59h2.67V7.66H70.49v8.7a2,2,0,0,0,.25,1.27,3,3,0,0,0,1.58.24h.41l.43,0v3.22l-2,.08c-2,.07-3.42-.28-4.17-1.06a3.15,3.15,0,0,1-.72-2.28V7.66Z"/><path class="cls-1" d="M88.17,4.06l.37,0V8.49l-.72-.06H87.3c-1.73,0-2.89.56-3.49,1.69a6.59,6.59,0,0,0-.5,2.93v7.87H79V4.44h4.11V7.31a9.17,9.17,0,0,1,1.73-2.25,4.78,4.78,0,0,1,3.15-1Z"/></g></g></svg>