<?xml version="1.0" encoding="utf-8"?>
<!-- Generator: Adobe Illustrator 22.0.0, SVG Export Plug-In . SVG Version: 6.00 Build 0)  -->
<svg version="1.1" id="Layer_1" xmlns="http://www.w3.org/2000/svg" xmlns:xlink="http://www.w3.org/1999/xlink" x="0px" y="0px"
	 viewBox="0 0 20 20" style="enable-background:new 0 0 20 20;" xml:space="preserve">
<style type="text/css">
	.st0{fill:#009BD7;}
</style>
<title>Asset 41</title>
<g id="Layer_2_1_">
	<g id="Layer_1-2">
		<path id="arrow_right" class="st0" d="M11.1,0.3c-0.4-0.4-1-0.4-1.4,0c0,0,0,0,0,0l0,0c-0.4,0.4-0.4,1,0,1.4c0,0,0,0,0,0l6.4,6.4
			c0.2,0.2,0.2,0.5,0,0.7C16.1,9,15.9,9,15.8,9H1c-0.6,0-1,0.4-1,1l0,0c0,0.6,0.4,1,1,1h14.8c0.3,0,0.5,0.2,0.5,0.5
			c0,0.1-0.1,0.3-0.1,0.4l-6.5,6.5c-0.4,0.4-0.4,1,0,1.4l0,0c0.4,0.4,1,0.4,1.4,0c0,0,0,0,0,0l8.3-8.3l0,0c0.8-0.8,0.8-2,0-2.8
			c0,0,0,0,0,0L11.1,0.3z"/>
	</g>
</g>
</svg>
